<svg
    xmlns="http://www.w3.org/2000/svg"
    viewBox="0 0 234 233"
    id="vector">
    <path
        id="path"
        d="M 47.36 18.24 C 30.37 18.24 23.24 18.36 12.37 27.12 C 9.1 29.76 5.35 34.42 3.03 39.45 C -0.14 46.32 0 50.54 0 58.75 L 0 190.31 C 0 207.4 1.17 214.25 10.69 223.61 C 20.4 233.16 27.42 233.78 44.5 233.78 C 50.17 233.78 106.89 234.28 109.75 233.35 C 114.83 231.68 117.61 223.95 112.91 218.9 C 108.89 214.58 101.01 215.87 94.02 215.87 C 81.52 215.87 35.55 216.87 29.53 214.56 C 15.38 209.12 17.91 193.95 17.91 182.58 C 17.91 179.66 17.26 56.19 18.25 51.48 C 19.51 45.49 23.18 41.12 27.6 38.76 C 33.22 35.76 40.72 36.55 47.65 36.55 C 47.65 42.47 45.75 54.82 56.88 54.79 C 67.83 54.76 65.94 41.85 65.94 36.55 L 107.18 36.55 C 107.12 40.14 106.62 46.18 107.82 49.1 C 110.94 56.68 121.42 56.55 124.54 49.56 C 125.99 46.31 125.41 40.5 125.41 36.55 L 167.04 36.57 C 167.04 41.89 165.11 54.69 176.05 54.79 C 186.02 54.88 185.34 45.16 185.34 36.56 C 198.52 36.52 205.48 35.65 211.91 44.07 C 219.81 54.42 212.84 93.36 215.77 108.79 C 217.65 118.67 233.26 118.98 233.81 106.77 C 234.3 95.86 233.82 83.74 233.82 72.7 C 233.82 53.33 235.95 34.76 215 22.91 C 205.39 17.47 197.36 18.3 185.33 18.25 C 185.33 14.44 185.92 8.63 184.53 5.41 C 181.5 -1.61 171.1 -1.87 167.9 5.26 C 166.46 8.47 167.04 14.36 167.04 18.26 L 125.36 18.26 C 125.44 12.58 127.18 -0.05 116.21 0.02 C 106.45 0.08 107.12 9.67 107.12 18.26 L 65.91 18.26 C 65.97 12.43 67.77 0.11 56.88 0.02 C 44.93 -0.08 48.31 14.6 47.35 18.26 Z"
        fill="#FFFFFF"/>
    <path
        id="path_1"
        d="M 173.62 142.18 C 195.24 138.87 212.51 155.37 215.13 173.4 C 218.36 195.67 202.22 212.84 183.53 215.48 C 161.82 218.55 144.39 202.52 141.81 183.82 C 138.73 161.52 154.87 145.05 173.62 142.18 Z M 233.46 185.15 C 235.71 168.83 228.74 152.15 220.95 143.36 C 213.28 134.71 202.35 126.08 185.2 123.9 C 152.67 119.75 127.24 144.11 123.62 171.91 C 119.49 203.61 144.33 231.64 171.94 233.64 C 191.41 235.05 203.11 230.06 214.38 220.88 C 223.44 213.5 231.24 201.3 233.46 185.16 Z"
        fill="#FFFFFF"/>
    <path
        id="path_2"
        d="M 187.65 169.44 C 187.62 164.36 188.53 158 185.64 154.42 C 182.99 151.14 177.93 149.54 173.36 152.52 C 169.02 155.36 169.33 159.64 169.34 165.54 C 169.34 169.42 168.84 178.95 169.95 181.97 C 171.63 186.54 175.44 187.97 181.21 187.96 C 186.04 187.95 193.27 188.87 196.9 186.39 C 200.17 184.16 202.14 178.88 199.7 174.39 C 196.78 169.01 194.18 170.65 187.64 169.43 Z"
        fill="#FFFFFF"/>
    <path
        id="path_3"
        d="M 87.63 177.41 C 89.8 188.73 107.6 186.01 105.58 174.02 C 103.6 162.25 85.31 165.31 87.63 177.41 Z"
        fill="#FFFFFF"/>
    <path
        id="path_4"
        d="M 133.3 87.54 C 121.74 92.06 128.56 108.86 139.76 104.48 C 150.58 100.25 144.64 83.11 133.3 87.54 Z"
        fill="#FFFFFF"/>
    <path
        id="path_5"
        d="M 93.54 87.51 C 82.31 91.64 88.28 108.56 99.63 104.62 C 110.72 100.77 105.2 83.22 93.54 87.51 Z"
        fill="#FFFFFF"/>
    <path
        id="path_6"
        d="M 87.65 137.69 C 89.85 148.49 107.43 146.53 105.61 134.28 C 103.87 122.59 85.15 125.35 87.65 137.69 Z"
        fill="#FFFFFF"/>
    <path
        id="path_7"
        d="M 173.07 87.58 C 161.43 92.29 168.47 108.67 179.51 104.51 C 190.42 100.4 184.34 83.02 173.07 87.58 Z"
        fill="#FFFFFF"/>
    <path
        id="path_8"
        d="M 47.79 176.9 C 49.13 188.34 67.4 186.69 65.81 174.31 C 64.36 162.98 46.34 164.5 47.79 176.9 Z"
        fill="#FFFFFF"/>
    <path
        id="path_9"
        d="M 53.52 87.7 C 41.93 92.63 49.37 108.36 59.89 104.58 C 71.11 100.54 64.99 82.82 53.52 87.7 Z"
        fill="#FFFFFF"/>
    <path
        id="path_10"
        d="M 47.89 137.69 C 50.11 148.99 67.84 146.21 65.75 134.09 C 63.88 123.23 45.42 125.14 47.89 137.69 Z"
        fill="#FFFFFF"/>
</svg>
