<?xml version="1.0" encoding="UTF-8" standalone="no"?>
<svg
   width="104.27848"
   height="77.544304"
   viewportWidth="24"
   viewportHeight="24"
   tint="?attr/colorControlNormal"
   version="1.1"
   id="svg845"
   sodipodi:docname="ic_baseline_group_unidade.SVG"
   inkscape:version="1.1 (c68e22c387, 2021-05-23)"
   xmlns:inkscape="http://www.inkscape.org/namespaces/inkscape"
   xmlns:sodipodi="http://sodipodi.sourceforge.net/DTD/sodipodi-0.dtd"
   xmlns="http://www.w3.org/2000/svg"
   xmlns:svg="http://www.w3.org/2000/svg">
  <defs
     id="defs849" />
  <sodipodi:namedview
     id="namedview847"
     pagecolor="#ffffff"
     bordercolor="#666666"
     borderopacity="1.0"
     inkscape:pageshadow="2"
     inkscape:pageopacity="0.0"
     inkscape:pagecheckerboard="0"
     showgrid="false"
     inkscape:zoom="3.95"
     inkscape:cx="9.6202532"
     inkscape:cy="76.582278"
     inkscape:window-width="1920"
     inkscape:window-height="1017"
     inkscape:window-x="-8"
     inkscape:window-y="-8"
     inkscape:window-maximized="1"
     inkscape:current-layer="svg845" />
  <path
     fill="@color/white"
     d="m 71.098967,33.233273 c 7.86828,0 14.17239,-7.422097 14.17239,-16.616637 C 85.271357,7.4220974 78.967247,0 71.098967,0 c -7.86829,0 -14.2198,7.4220974 -14.2198,16.616636 0,9.19454 6.35151,16.616637 14.2198,16.616637 z m -37.91945,0 c 7.86829,0 14.17239,-7.422097 14.17239,-16.616637 C 47.351907,7.4220974 41.047807,0 33.179517,0 c -7.86829,0 -14.21979,7.4220974 -14.21979,16.616636 0,9.19454 6.3515,16.616637 14.21979,16.616637 z m 0,11.077758 C 22.135477,44.311031 0,50.791522 0,63.697108 V 77.544306 H 66.359037 V 63.697108 c 0,-12.905586 -22.13548,-19.386077 -33.17952,-19.386077 z m 37.91945,0 c -1.37458,0 -2.93876,0.110778 -4.59774,0.276944 5.49832,4.652659 9.33767,10.911591 9.33767,19.109133 V 77.544306 H 104.27848 V 63.697108 c 0,-12.905586 -22.135483,-19.386077 -33.179513,-19.386077 z"
     id="path843"
     style="stroke-width:5.12386" />
</svg>
