<svg id="vector" xmlns="http://www.w3.org/2000/svg" width="31.4112" height="31.4112" viewBox="0 0 2636.83 2636.83"><path fill="#121212" d="M1315.44,2246.62 L554.06,934.77L554.06,699.56h1519.82v235.21l-758.45,1311.85v0zM2027.13,937.95 L2023.57,753.72 598.88,750.85 600.83,937.95 1315.32,2156.51z" id="path_0"/><path fill="#FF000000" d="M1315.44,2246.62 L554.06,934.77L554.06,699.56L2073.88,699.56L2073.88,934.77L1315.43,2246.62M2027.12,937.95 L2023.56,753.72 598.87,750.85l1.95,187.1 714.49,1218.56z" id="path_1"/><path fill="#121212" d="m1565.92,1031.67c-99.66,1.69 -251.84,-43.42 -251.84,-43.42 0,0 -144.88,43.37 -239.97,43.42 -95.32,0.03 -240.51,-43.42 -240.51,-43.42 0,0 19.53,213.49 80.01,332.26 94.82,186.27 400.47,356.1 400.47,356.1 0,0 305.76,-169.88 400.56,-356.21 60.42,-118.76 79.91,-332.15 79.91,-332.15 0,0 -137.87,41.87 -228.63,43.42zM1668.85,1312.5c-84.18,164.75 -354.53,315.27 -354.53,315.27 0,0 -270.29,-150.47 -354.48,-315.17 -48.71,-95.29 -70.79,-265.15 -70.79,-265.15 0,0 129.37,26.69 212.85,23.96 84.15,-2.76 212.42,-38.42 212.42,-38.42 0,0 134.71,36.76 222.88,38.42 79.48,1.49 202.37,-23.95 202.37,-23.95 0,0 -22.04,169.76 -70.72,265.05z" id="path_2"/><path fill="#FF000000" d="m1565.92,1031.67c-99.66,1.69 -251.84,-43.42 -251.84,-43.42 0,0 -144.88,43.37 -239.97,43.42 -95.32,0.03 -240.51,-43.42 -240.51,-43.42 0,0 19.53,213.49 80.01,332.26 94.82,186.27 400.47,356.1 400.47,356.1 0,0 305.76,-169.88 400.56,-356.21 60.42,-118.76 79.91,-332.15 79.91,-332.15 0,0 -137.87,41.87 -228.63,43.42m102.93,280.83c-84.18,164.75 -354.53,315.27 -354.53,315.27 0,0 -270.29,-150.47 -354.48,-315.17 -48.71,-95.29 -70.79,-265.15 -70.79,-265.15 0,0 129.37,26.69 212.85,23.96 84.15,-2.76 212.42,-38.42 212.42,-38.42 0,0 134.71,36.76 222.88,38.42 79.48,1.49 202.37,-23.95 202.37,-23.95 0,0 -22.04,169.76 -70.72,265.05z" id="path_3"/><path fill="#121212" d="M1152.16,1396.66l658.34,-311.08l-690.9,235.04l-6.24,2.96l-22.71,-93.32l21.72,-36.16l-126.62,36.16l47.01,21.72l32.41,94.46l-83.02,39.36l-25.33,-36.16l-39.8,10.84l61.51,151.94l39.78,-18.09l-7.23,-47.04l86.48,-31.05l54.6,96.18l-10.85,47.02l97.65,-57.87l-50.64,-21.71l-45.02,-80.04z" id="path_4"/><path fill="#00000000" d="M49.17,1308.38a1265.56,1265.56 0,1 0,2531.11 0a1265.56,1265.56 0,1 0,-2531.11 0z" stroke-width="114.333" stroke="#000000" id="path_5"/></svg>