<svg id="vector" xmlns="http://www.w3.org/2000/svg" width="28.125" height="28.1824" viewBox="0 0 295.68 296.28"><path fill="#ffffff" d="M47.43,72.37c0,-6.89 4.7,-9.32 10.01,-14.63 6.94,-6.94 11.84,-14.64 20.66,-6.8 16.07,14.3 38.1,9.47 46.35,-6.28 1.19,-2.28 1.96,-4.1 2.82,-7.04 1.79,-6.13 -1.56,-17.62 11.95,-17.62 13.68,0 26.27,-2.57 28.11,8.23 1.13,6.6 -0.75,7.25 3.7,16.01 8.28,16.33 30.04,20.84 46.23,6.98 3.53,-3.02 3.27,-3.5 8.2,-3.5 4.36,0 10.08,7.31 12.78,10.01 6.94,6.94 14.64,11.84 6.8,20.66 -14.47,16.25 -9.34,38.43 6.69,46.55 12.81,6.49 24.24,-0.33 24.24,14.56 0,13.68 2.57,26.27 -8.23,28.11 -6.6,1.13 -7.25,-0.75 -16.01,3.7 -16.26,8.24 -20.91,29.96 -6.98,46.23 3.02,3.53 3.51,3.27 3.51,8.2 0,4.36 -7.31,10.08 -10.01,12.78 -6.94,6.94 -11.84,14.64 -20.66,6.8 -15.98,-14.22 -38.22,-9.74 -46.55,6.69 -1.36,2.67 -1.8,3.35 -2.63,6.61 -1.62,6.35 1.38,17.64 -11.93,17.64 -13.68,0 -26.27,2.57 -28.11,-8.23 -1.3,-7.59 1.08,-6.59 -3.7,-16.01 -7.55,-14.9 -27.73,-19.76 -41.39,-10.77 -7.25,4.77 -6,7.29 -13.04,7.29 -4.36,0 -10.08,-7.31 -12.78,-10.01 -6.94,-6.94 -14.64,-11.84 -6.8,-20.66 16.88,-18.97 6.82,-44.06 -13.3,-49.19 -6.35,-1.62 -17.64,1.38 -17.64,-11.93 0,-13.68 -2.57,-26.27 8.23,-28.11 3.54,-0.6 5.46,-0.07 8.92,-0.94 3.24,-0.81 4.18,-1.28 7.1,-2.76 14.35,-7.27 19.77,-26.23 10.92,-40.93 -1.18,-1.95 -2.4,-3.51 -3.94,-5.3 -1.49,-1.75 -3.5,-3.3 -3.5,-6.35zM71.45,27.4c-13.53,0 -19.55,7.54 -27.87,15.86 -9.3,9.3 -22.43,20.83 -14.02,39.58 4.27,9.51 11.31,11.16 9.31,18.49 -3.61,13.24 -15.66,1.49 -29.19,14.6 -4.46,4.32 -9.69,10.84 -9.69,19.26l0,25.87c0,10.57 9.56,21.41 17.94,24.57 5.77,2.18 6.15,1.16 12.73,2.05 4.12,0.56 6.54,2.43 7.91,6.29 1.84,5.2 -0.45,7.18 -2.84,10.21 -8.9,11.29 -12.57,23.06 -3.6,36.85 1.83,2.81 19.15,19.96 22.15,22.2 2.16,1.62 4.41,2.9 7.23,3.86 11.35,3.84 22.23,0.81 30.11,-7.03 6.29,-6.27 15.26,-3.45 16.57,5.32 0.71,4.74 -0.19,9.39 3.55,15.55 11.38,18.75 26.59,15.03 49.04,15.03 10.57,0 21.37,-9.53 24.57,-17.93 2.63,-6.91 1.36,-8.33 2.05,-12.73 1.36,-8.62 10.29,-11 16.65,-5.22 3.39,3.08 3.69,3.71 8.25,5.92 9.31,4.5 20.61,3.38 28.4,-2.23 3.53,-2.54 19.66,-18.62 22.26,-22.09 5.84,-7.8 7.35,-18.92 3.16,-28.27 -1.93,-4.3 -2.92,-5.52 -6.02,-8.76 -2.44,-2.56 -4.47,-5.98 -3.15,-10.2 3.06,-9.72 9.61,-4.81 20.34,-8.65 9.11,-3.26 18.39,-13.86 18.39,-25.96l0,-24.64c0,-8.43 -5.23,-14.94 -9.69,-19.26 -8.55,-8.3 -16.67,-6.61 -21.51,-7.45 -4.42,-0.76 -6.4,-3.06 -7.53,-6.68 -3.08,-9.8 11.62,-11.4 11.62,-30.68 0,-13.63 -8.83,-20.22 -16.17,-27.57 -5.68,-5.68 -10.45,-11.77 -18.24,-14.41 -22.08,-7.48 -30.08,10.56 -37.05,10.56 -13.36,0 -7.35,-14.8 -13.18,-24.4 -11.38,-18.75 -26.59,-15.03 -49.04,-15.03 -12.08,0 -24.07,11.44 -26.26,23.64 -0.44,2.44 0.01,4.67 -0.36,7.03 -1.38,8.62 -10.29,11 -16.65,5.21 -3.39,-3.08 -3.7,-3.71 -8.25,-5.92 -2.8,-1.36 -8.07,-2.86 -11.92,-2.86z" id="path_0"/><path fill="#ffffff" d="M98.56,148.14c0,-35.06 37.54,-59.64 69.41,-44.77 24.27,11.33 36.17,40.27 24.64,64.9 -20.25,43.26 -81.76,36.21 -92.67,-9.19 -0.58,-2.41 -1.38,-8.37 -1.38,-10.94zM78.85,145.06c0,21.41 5.48,37.2 20.17,51.9 33.86,33.86 90.66,23.86 111.25,-19.04 12.7,-26.46 6.89,-58.1 -13.61,-78.6 -5.69,-5.69 -11.31,-9.9 -19.04,-13.61 -17.76,-8.53 -41.52,-9.06 -59.15,-0.2 -22.4,11.25 -39.62,33.98 -39.62,59.55z" id="path_1"/></svg>