<svg id="vector" xmlns="http://www.w3.org/2000/svg" width="27.5622" height="33.13" viewBox="0 0 2259.77 2716.26"><path fill="#00000000" d="M111.74,381.95c-26.36,-52.45 -78.14,-89.65 -40.82,-149.69 37.32,-60.03 972.04,-298.28 1095.44,-92.02l1021.73,1707.78 -702,772.33c-458.12,-746.13 -916.22,-1492.27 -1374.34,-2238.4z" stroke-width="99.28748145" stroke="#000000" id="path_0"/><path fill="#00000000" d="M543.97,808.48a102.3,163.69 80.5,1 0,322.88 -54.05a102.3,163.69 80.5,1 0,-322.88 54.05z" stroke-width="61.41968278" stroke="#000000" id="path_1"/><path fill="#00000000" d="M718.44,1088.93a102.3,163.69 80.5,1 0,322.88 -54.05a102.3,163.69 80.5,1 0,-322.88 54.05z" stroke-width="61.41968278" stroke="#000000" id="path_2"/><path fill="#00000000" d="M892.73,1373.41a102.3,163.69 80.5,1 0,322.88 -54.05a102.3,163.69 80.5,1 0,-322.88 54.05z" stroke-width="61.41968278" stroke="#000000" id="path_3"/><path fill="#00000000" d="M1057.28,1660.36a102.3,163.69 80.5,1 0,322.88 -54.05a102.3,163.69 80.5,1 0,-322.88 54.05z" stroke-width="61.41968278" stroke="#000000" id="path_4"/><path fill="#00000000" d="M1248.87,1952.75a102.3,163.69 80.5,1 0,322.88 -54.05a102.3,163.69 80.5,1 0,-322.88 54.05z" stroke-width="61.41968278" stroke="#000000" id="path_5"/><path fill="#FF000000" d="m672.49,383.44c19.63,-9.32 45.44,-9.32 56.72,3.06 -7.79,26.66 -47.65,28.79 -56.72,-3.06zM672.8,373.98c-1.17,-4.39 3.12,-13.04 7.98,-17.65 20.55,-19.55 52.63,-0.61 49.68,19.48 -9.35,-2.21 -21.56,-15.28 -57.65,-1.83zM677.81,347.92c-39.87,33.63 10.22,90.3 47.86,58.63 14.03,-11.81 20.12,-35.28 4.87,-53.4 -11.66,-13.86 -35.09,-20.11 -52.73,-5.23zM665.22,334.42c2.56,-4.64 4.06,-8.12 6.91,-11.87 4.85,-0.3 9.35,0.52 14.47,0.93 13.37,1.06 96.22,6.87 100.27,8.32 -0.35,1.41 -50.57,93.11 -56.18,100.48l-57.95,-4.23c-8.3,-0.8 -52.9,-3.63 -56.79,-5.03zM666.35,315.82c-5.62,7.6 -11.74,19.95 -16.49,28.75 -5.03,9.33 -10.63,18.96 -16.05,28.65l-23.95,42.63c-2.37,4.22 -8.67,11.29 -3.48,14.74l114.11,9.68c18.95,1.29 13.86,4.5 32.47,-30.02l40,-71.28c2.37,-4.21 8.67,-11.28 3.48,-14.74l-114.11,-9.67c-4,-0.27 -13.45,-2.15 -15.98,1.26zM547.97,358.83 L771.4,239.59 854.86,395.99 631.43,515.23 547.97,358.82ZM537.93,355.79c1.25,6.87 85.43,164.62 90.45,169.48 6.42,-1.16 231.98,-121.54 236.51,-126.22 -1.25,-6.88 -85.43,-164.62 -90.45,-169.49 -6.42,1.16 -231.98,121.54 -236.51,126.23z" stroke-width="12.05223762" id="path_6"/><path fill="#00000000" d="M960.68,671.61a102.3,163.69 80.5,1 0,322.88 -54.05a102.3,163.69 80.5,1 0,-322.88 54.05z" stroke-width="61.41968278" stroke="#000000" id="path_7"/><path fill="#00000000" d="M1135.15,952.05a102.3,163.69 80.5,1 0,322.88 -54.05a102.3,163.69 80.5,1 0,-322.88 54.05z" stroke-width="61.41968278" stroke="#000000" id="path_8"/><path fill="#00000000" d="M1309.44,1236.54a102.3,163.69 80.5,1 0,322.88 -54.05a102.3,163.69 80.5,1 0,-322.88 54.05z" stroke-width="61.41968278" stroke="#000000" id="path_9"/><path fill="#00000000" d="M1474,1523.49a102.3,163.69 80.5,1 0,322.88 -54.05a102.3,163.69 80.5,1 0,-322.88 54.05z" stroke-width="61.41968278" stroke="#000000" id="path_10"/><path fill="#00000000" d="M1665.58,1815.88a102.3,163.69 80.5,1 0,322.88 -54.05a102.3,163.69 80.5,1 0,-322.88 54.05z" stroke-width="61.41968278" stroke="#000000" id="path_11"/></svg>