<svg
    xmlns="http://www.w3.org/2000/svg"
    viewBox="0 0 332 533"
    id="vector">
    <path
        id="path"
        d="M 305.24 229.3 C 292.93 225.62 282.22 230.69 275.62 238.04 C 266.8 247.85 268.39 259.07 268.43 273.28 C 268.49 292.95 270.95 342.13 266.08 356.82 C 244.52 364.45 246.25 349.44 246.37 331.24 L 246.39 186.4 C 246.39 168.58 250.3 103.68 242.63 93.3 C 235.37 83.48 218.67 83.03 211.36 93.08 C 204.26 102.85 207.53 125.04 207.53 138.82 C 207.53 170.54 207.48 202.27 207.53 233.99 C 207.55 246.59 211.78 271.43 193.3 267.24 C 181.29 264.51 185.48 239.16 185.49 225.72 C 185.49 199.9 188.87 44.06 182.32 33.59 C 175.63 22.9 158.32 22.12 150.67 32.38 C 143.67 41.76 146.62 64.13 146.62 76.75 C 146.62 97.19 150.48 260.85 141.91 265.99 C 117.38 280.71 124.57 217.12 124.57 188.47 C 124.57 156.72 124.67 124.96 124.64 93.22 C 124.63 78.43 121.44 65.63 105.89 65.09 C 88.68 64.49 85.65 76.58 85.65 93.21 L 85.72 238.13 C 85.81 256.2 87.76 273.07 66.28 265.46 C 56.62 239.52 72.52 148.14 58.53 132.57 C 54.78 128.4 24.49 111.28 24.75 157.41 L 24.81 368.47 C 27 498.86 180.42 553.89 265.94 468.36 C 287.44 446.86 306.55 412.7 307.28 368.48 C 307.66 345.54 309.55 242.72 305.24 229.3 Z M 268.44 212.79 C 277.53 212.05 284.48 205.05 298.37 205.41 C 309.77 205.71 318.75 211.27 323.16 217.54 C 333.23 231.85 329.35 267.51 329.35 287.77 C 329.35 336.21 334.13 386.09 317.71 429.09 C 273.28 545.38 109.98 571.66 32.5 462.74 C 6.32 425.93 2.75 395.31 2.75 341.56 C 2.75 290.53 2.75 239.49 2.75 188.46 C 2.75 166.25 -1.63 136.07 11.06 120.31 C 31.33 95.14 52.21 107.03 63.66 107.07 C 63.66 83.04 61.35 69.91 76.25 55.2 C 89.57 42.04 103.93 39.96 124.09 47.18 C 127.34 19.97 142.91 -3.97 175.33 3.35 C 213.65 11.99 205.74 52.77 208.4 67.51 C 232.29 56.23 267.43 67.49 268.48 107.72 C 269.38 142.21 268.45 178.14 268.45 212.8 Z"
        fill="#FFFFFF"/>
</svg>
