<svg
    xmlns="http://www.w3.org/2000/svg"
    viewBox="0 0 620 623"
    id="vector">
    <path
        id="path"
        d="M 188.65 560.57 L 202.7 560.29 L 286 560.34 L 299.48 560.55 L 300.61 599.63 L 188.21 600.35 L 188.65 560.57 Z M 24.02 538.91 L 168.29 538.91 L 167.68 600.38 L 28.86 600.38 L 24.03 600.38 L 24.03 538.91 Z M 462.04 597.84 L 451.95 555.49 L 585.19 519.81 L 596.17 563.15 L 462.04 597.84 Z M 188.33 519.47 L 300.24 519.12 L 300.37 537.81 L 188.44 538.42 L 188.34 519.47 Z M 24.29 487.51 L 164.66 487.5 L 167.04 518.27 L 162.85 518.26 L 28.85 518.26 L 24.65 518.27 L 24.29 487.51 Z M 445.37 534.25 L 436.16 494.52 L 569.68 459.6 L 578.98 497.65 C 568.35 504.44 462.67 531.9 445.37 534.25 Z M 188.22 140.04 L 299.89 139.78 L 300.41 496.83 L 188.94 497.22 L 188.21 140.04 Z M 24.02 159.12 L 166.48 159.12 L 167.68 466.96 L 25.24 466.96 L 24.03 159.12 Z M 371.96 246.41 L 503.04 212.01 L 564.23 440.43 L 431.99 474.45 C 424.56 460.16 374.83 269.64 371.96 246.41 Z M 362.16 211.63 L 376.5 204.23 C 382.27 202.5 387.24 201.76 393.69 200.08 C 406.1 196.84 416.19 193.9 428.26 190.75 L 479.8 176.55 C 484.97 175.59 483.66 175.3 488.35 175.93 C 498.14 177.22 489.37 174.29 496.14 179.05 C 498.48 198.72 509.24 188.16 429.15 209.94 C 369.04 226.29 367.14 233.53 362.15 211.65 Z M 345.49 147.54 C 360.63 139.29 455.25 115.65 477.59 111.14 L 489.28 153.1 L 354.85 188.58 L 345.49 147.54 Z M 21.6 107.83 L 167.04 107.82 L 167.4 138.58 L 159.23 138.59 L 24.29 138.58 L 21.61 107.83 Z M 188.42 87.67 L 300.35 88.28 L 300.38 117.86 L 188.26 117.5 L 188.43 87.67 Z M 188.19 25.75 L 300.59 26.47 L 299.46 65.55 L 285.98 65.76 L 202.68 65.81 L 188.63 65.53 L 188.19 25.75 Z M 9.34 615.03 C 16.93 622.74 40.66 619.27 54.18 619.24 L 300.83 619.54 C 325.33 619.28 322.61 615.62 322.47 592.2 C 321.64 454.02 316.94 286.07 322.71 153.25 C 339.84 186.6 432.57 595.7 448.94 617.62 C 467.47 619.77 611.46 584.27 617.12 575 C 620.51 558.76 566.26 364.85 557.68 331.23 C 547.08 289.67 536.15 249.46 525.35 207.62 C 516.8 174.51 504.25 115.08 492.66 88.33 C 473.73 87.83 340.34 124.02 322.87 131.48 C 321.01 103.53 327.93 27.79 318.8 8.83 C 304.23 1.7 188.35 2.54 172.64 7.46 C 169.7 11.91 171.92 4.53 168.82 16.42 L 167.2 87 L 7.35 88.82 C 0.46 116.75 5.14 415.35 5.14 486.89 C 5.14 505.53 0.2 606.03 9.33 615.03 Z"
        fill="#ffffff"/>
    <path
        id="path_1"
        d="M 65.3 211.33 L 126.74 211.63 L 125.3 271.83 L 65.4 271.52 L 65.3 211.33 Z M 46.96 193.78 C 44.89 200 35.11 282.7 53.42 291.33 C 63.07 295.88 110.03 294.36 123.31 293.94 C 139.64 293.43 136.01 295.15 144.12 286.53 C 148.23 279.71 150.87 201.25 144.2 193.77 C 136.14 184.74 58.31 188.31 46.96 193.78 Z"
        fill="#ffffff"/>
</svg>
